<svg width="76" height="61" viewBox="0 0 76 61" fill="none" xmlns="http://www.w3.org/2000/svg">
<path d="M72.0893 36.2314C71.9895 36.1303 71.9895 36.009 71.9895 35.9281C71.9895 35.9079 71.9895 35.8877 71.9895 35.8473L71.9696 35.6451L72.1491 35.5642C74.5235 34.3915 75.3615 32.1675 75.9202 29.9434C76.0998 29.1953 75.8603 28.6898 75.1819 28.3865C75.0622 28.3259 74.9425 28.2855 74.8028 28.245C74.7031 28.2046 74.6033 28.1641 74.5035 28.1237C71.2313 26.8297 69.1762 25.01 68.0389 22.4018C67.4802 21.128 67.2208 19.7329 67.2208 17.9941C67.2208 17.61 67.2208 17.246 67.2208 16.8619C67.2208 14.5974 67.2407 12.252 66.7619 9.98748C65.5248 3.96229 61.8336 0.444225 56.4064 0.0398495C51.5778 -0.303869 47.9464 1.57648 45.5721 5.66066C44.5146 7.48035 43.896 9.40114 43.7364 11.4028C43.5967 13.0405 43.5568 14.7187 43.497 16.3362C43.477 17.1651 43.4571 18.0345 43.4172 18.8837C43.2975 21.8155 42.1202 24.2013 39.9055 26.0007C39.6262 26.2434 39.1473 26.3647 38.7482 26.3242C34.8973 25.8996 31.9244 27.2745 29.6697 30.5095C29.55 30.6915 29.4303 30.9341 29.3106 31.1767C29.0711 31.6822 28.8317 32.2079 28.3728 32.3494C27.8341 32.5314 27.2355 32.2888 26.6369 32.0664C26.4374 31.9855 26.2379 31.9046 26.0583 31.8642C25.9984 31.844 25.9386 31.844 25.8787 31.8237C25.5994 31.7833 25.1006 31.7024 25.0407 31.015C24.9808 30.3073 25.3799 30.0041 25.7789 29.7412C29.5899 27.2543 31.6051 23.716 31.7448 19.2275C31.8047 17.5291 31.7847 15.8105 31.7648 14.1323C31.7648 13.7684 31.7648 13.3842 31.7648 13.0203C31.7049 6.14592 26.9761 0.889037 20.272 0.2016C13.7873 -0.445401 7.66185 4.42732 6.90365 10.8771C6.66422 12.9394 6.68417 15.1028 6.70412 17.1651C6.70412 17.6706 6.72407 18.1963 6.72407 18.7018C6.74403 23.4532 8.79916 27.1734 12.8097 29.7412C13.528 30.2062 13.508 30.7319 13.3683 31.0756C13.2287 31.4194 12.8296 31.662 12.5104 31.7631C11.7322 32.0259 10.9142 32.2888 10.136 32.5314C8.63954 32.9964 7.10318 33.4817 5.66658 34.0882C2.65371 35.362 0.79811 37.5861 0.199527 40.6998C0.159622 40.9424 0.0997637 41.1648 0.0598582 41.4074L0 41.6905V56.4502C0.319244 57.0568 0.818062 57.2994 1.63612 57.2994C6.40483 57.2792 11.2334 57.2792 15.9223 57.2792C17.4387 57.2792 18.9751 57.2792 20.4915 57.2792H21.7086V57.5824C21.7086 57.8048 21.7086 58.0273 21.7086 58.2294C21.7086 58.6743 21.7086 59.0786 21.7086 59.483C21.7285 60.5344 22.1276 60.9388 23.1651 60.959C23.7837 60.9792 24.4022 60.959 25.0207 60.959C25.3001 60.959 25.5794 60.959 25.8588 60.959C26.2977 60.959 26.7367 60.959 27.1557 60.959C28.273 60.959 29.4103 60.959 30.5477 60.9388C31.0066 60.9388 31.3857 60.7568 31.6251 60.4535C31.8246 60.1907 31.9044 59.8469 31.8246 59.483C31.7049 58.8764 31.2061 58.5327 30.4279 58.5327C29.3904 58.5327 28.3329 58.5327 27.2954 58.5327C26.597 58.5327 25.8987 58.5327 25.2003 58.5327C25.0207 58.5327 24.8412 58.5125 24.6416 58.4923C24.5419 58.4923 24.4421 58.4721 24.3224 58.4721L24.0231 58.4518L24.0431 58.1486C24.063 57.8857 24.083 57.6431 24.083 57.4005C24.1229 56.8748 24.1428 56.3693 24.2027 55.8638C24.4222 54.125 25.1405 52.8108 26.3576 51.9212C27.7343 50.9102 29.3106 50.4452 30.8469 50.0004C31.1861 49.8993 31.5253 49.7982 31.8645 49.6971L32.1239 49.6162L32.2436 49.8589C33.361 52.2851 35.057 53.4578 37.4513 53.3972C39.9055 53.3567 41.6015 52.1436 42.639 49.7376L42.7587 49.4747L43.0181 49.5758C43.5169 49.778 44.0158 49.96 44.5146 50.1419C45.612 50.5463 46.7293 50.9709 47.7868 51.5168C49.9617 52.6491 51.1987 55.7021 50.5802 58.2901L50.5203 58.5125H50.2809C49.7023 58.5125 49.1237 58.5125 48.545 58.5125C47.9664 58.5125 47.3878 58.5125 46.8091 58.5125C46.011 58.5125 45.193 58.5125 44.3749 58.5125C43.4371 58.5125 42.8984 58.9573 42.8984 59.7256C42.8984 60.777 43.8162 60.9185 44.3749 60.9388C47.1683 60.959 49.4828 60.959 51.6377 60.9388C52.6553 60.9388 53.0743 60.5142 53.0743 59.4628C53.0743 59.0382 53.0743 58.6136 53.0743 58.1688V57.2387H59.2597C63.8089 57.2387 68.3781 57.2387 72.9273 57.2387C74.1644 57.2387 74.5235 56.8748 74.5235 55.6212C74.5235 53.9633 74.5235 52.3053 74.5235 50.6676C74.5235 48.0998 74.5235 45.5321 74.5235 42.9643C74.5634 40.2145 73.7653 38.0107 72.0893 36.2314ZM65.8441 24.3428L66.1234 24.0597L66.3229 24.4237C67.6598 26.8499 69.9144 28.7909 73.027 30.1456L73.2465 30.2467L73.2066 30.4893C72.9073 32.3899 70.9919 34.0276 69.1762 34.0276C69.0964 34.0276 69.0165 34.0276 68.9367 34.0276C68.837 34.0276 68.7372 33.9871 68.6574 33.9467C68.6374 33.9467 68.6175 33.9265 68.5776 33.9265C67.999 33.7445 67.4203 33.5423 66.8217 33.3604C65.2255 32.8549 63.5894 32.309 61.9732 31.8237C61.3347 31.6215 61.1751 31.2576 61.1352 30.7319C61.0155 29.4379 61.3946 28.5887 62.492 27.78C63.35 27.133 64.1281 26.2838 64.8464 25.4548C65.1657 25.0707 65.4849 24.7067 65.8441 24.3428ZM45.8714 13.728C46.0509 10.9378 46.5897 7.39948 49.3431 4.66995C51.1588 2.85026 54.2316 2.02129 57.1646 2.56719C59.958 3.07266 62.1328 4.71038 63.2901 7.17707C64.168 9.05742 64.6469 11.1399 64.7866 13.7684L64.8065 14.011L64.5671 14.0717C63.8887 14.2536 63.2103 14.3345 62.5519 14.3345C60.0378 14.3345 57.8829 13.0607 56.5461 10.7356C56.1869 10.1088 55.748 9.78529 55.309 9.78529C55.309 9.78529 55.309 9.78529 55.2891 9.78529C54.8501 9.78529 54.4311 10.129 54.0919 10.7558C52.5555 13.6269 49.4828 14.9006 46.0908 14.0515L45.8514 13.9908L45.8714 13.728ZM45.8315 16.8821L45.8514 16.5586L46.1706 16.599C50.0614 17.0438 52.8947 16.0733 55.0895 13.546L55.309 13.2831L55.5285 13.546C57.7033 16.0531 60.6164 17.0438 64.4274 16.599L64.7467 16.5586L64.7666 16.8821C65.0659 20.9865 63.6692 24.1204 60.5765 26.1827C58.8606 27.3352 57.1048 27.9013 55.329 27.9013C53.633 27.9013 51.917 27.3756 50.261 26.304C47.1084 24.3024 45.612 21.128 45.8315 16.8821ZM58.7608 31.1565C58.7808 32.0461 58.8207 32.956 58.4416 33.8456C57.9029 35.0992 56.6458 35.9079 55.329 35.9079C55.1294 35.9079 54.9299 35.8877 54.7304 35.8473C53.1142 35.5238 51.9569 34.1691 51.917 32.5516C51.8971 32.0259 51.8971 31.5205 51.917 30.9746C51.917 30.7117 51.917 30.4489 51.917 30.186V29.8019L52.2961 29.903C54.3114 30.4286 56.2468 30.4286 58.3817 29.903L58.7608 29.8019V30.186C58.7409 30.5095 58.7409 30.833 58.7608 31.1565ZM44.754 23.9182L44.9934 24.2619C45.0932 24.4035 45.173 24.545 45.2728 24.6865C45.4723 24.9898 45.6718 25.3133 45.9312 25.5761C46.7692 26.4253 47.7868 27.416 48.8643 28.3057C49.3032 28.6696 49.5826 29.0335 49.5427 29.6603C49.5227 30.004 49.5227 30.368 49.5227 30.7521C49.5227 30.9341 49.5227 31.1161 49.5227 31.3183V31.5407L46.1706 32.491L46.0709 32.2483C45.2728 30.3073 44.0357 28.7707 42.3597 27.6789L42.0803 27.4969L44.754 23.9182ZM36.8328 28.6494C40.2646 28.3259 43.6566 30.9543 44.0956 34.25L44.1754 34.7757L43.6965 34.5533C39.4865 32.6931 35.4161 32.6729 31.2659 34.5128L30.8669 34.6948L30.8469 34.25C30.7272 31.7631 33.76 28.9325 36.8328 28.6494ZM14.0068 4.10382C17.5185 1.94041 21.2297 1.98085 24.7015 4.24535C28.1134 6.46942 29.6697 9.86617 29.3305 14.3345L29.3106 14.6176H29.0312C28.5923 14.6176 28.1533 14.6176 27.7343 14.6378C27.3153 14.6378 26.8963 14.658 26.4573 14.658C25.9386 14.658 25.4198 14.6378 24.901 14.5974C21.529 14.3143 18.7157 13.4045 16.3213 11.8072C15.7228 11.4028 15.1641 11.5241 14.6653 12.1509C13.2686 13.9301 11.3332 14.3547 9.4576 14.5367L9.15831 14.5569L9.13836 14.2536C8.83907 9.6842 10.4752 6.26723 14.0068 4.10382ZM9.15831 17.3067L9.17826 17.064L9.39774 17.0236C9.61722 16.9832 9.8367 16.9427 10.0761 16.9023C10.555 16.8214 11.0538 16.7405 11.5327 16.6395C13.069 16.3362 14.346 15.7498 15.4434 14.84C15.6829 14.6378 16.1617 14.5367 16.461 14.6782C19.7133 16.417 23.5043 17.1854 28.3329 17.1651C28.4726 17.1651 28.6322 17.1651 28.7918 17.1651H29.3106L29.3305 17.4482C29.6697 21.8559 28.1334 25.2324 24.8013 27.4363C23.0055 28.6292 21.1499 29.2357 19.2744 29.2357C17.4986 29.2357 15.7028 28.6898 13.9669 27.598C10.3954 25.374 8.77921 21.9165 9.15831 17.3067ZM21.0501 35.3418C20.4516 35.726 19.853 35.9079 19.2344 35.9079C18.6159 35.9079 18.0173 35.726 17.4187 35.3418C16.1817 34.5533 15.6629 33.2795 15.8624 31.662L15.9023 31.3991H22.5865L22.6264 31.662C22.8259 33.3199 22.2872 34.5533 21.0501 35.3418ZM31.9443 46.6643V46.6845C31.8845 47.0485 31.4256 47.2507 30.9667 47.4326C30.4279 47.6348 29.8693 47.837 29.3305 48.019C28.3528 48.3627 27.3353 48.7064 26.3775 49.1512C24.2426 50.1217 22.8259 51.7999 22.1475 54.125C22.0677 54.4081 21.7884 54.5901 21.5889 54.7518L21.529 54.7923C21.4292 54.8529 21.3295 54.8731 21.2297 54.8731C21.1699 54.8731 21.13 54.8731 21.0701 54.8529C21.0302 54.8529 21.0102 54.8529 20.9903 54.8529H10.4752L10.4552 54.5698C10.4552 54.4688 10.4353 54.3677 10.4353 54.2868C10.4153 54.0846 10.4153 53.9026 10.4153 53.7207C10.4153 53.1343 10.4153 52.548 10.4153 51.9414C10.4153 50.8092 10.4153 49.6365 10.3954 48.484C10.3754 47.8168 10.0163 47.3517 9.4576 47.2507C8.87897 47.1496 8.3602 47.3922 8.18063 47.8774C8.06091 48.2009 8.04096 48.6053 8.021 48.8682C8.00105 50.0206 8.00105 51.2135 8.021 52.366C8.021 52.7906 8.021 53.2152 8.021 53.6398V54.8125H2.39433V53.8015C2.39433 52.7299 2.39433 51.6381 2.39433 50.5665C2.39433 48.1201 2.41428 45.6129 2.37438 43.126C2.33447 39.7293 3.83093 37.4041 6.80389 36.2112C8.26044 35.6249 9.77684 35.1396 11.2334 34.6544C11.8918 34.432 12.5702 34.2096 13.2287 33.9871L13.4881 33.9063L13.5878 34.1691C14.8049 37.0402 16.7204 38.3746 19.414 38.2937C21.8882 38.2129 23.6839 36.8582 24.7414 34.2702L24.8412 34.0276L28.1932 34.9576V35.1801C28.1932 35.5844 28.1733 35.9888 28.1733 36.3932C28.1533 37.2828 28.1334 38.1118 28.2132 38.961C28.4526 41.3266 29.5301 43.3282 31.4256 44.9053C32.1239 45.4714 32.0242 46.1588 31.9443 46.6643ZM39.3269 50.3643C38.6884 50.7889 38.0299 51.0113 37.3914 51.0113C36.8727 51.0113 36.3539 50.8698 35.8351 50.5867C34.6978 49.9397 34.219 48.8075 34.4384 47.2304L34.4783 46.9676H40.3245L40.3844 47.19C40.7036 48.4638 40.2846 49.6971 39.3269 50.3643ZM37.3316 44.7031C37.3116 44.7031 37.2717 44.7031 37.2518 44.7031C33.8598 44.6627 31.0664 42.0747 30.5876 38.5364C30.5077 37.9905 30.6873 37.6265 31.1662 37.3232C32.9619 36.2314 35.3363 35.6046 37.7306 35.6046C37.7506 35.6046 37.7506 35.6046 37.7705 35.6046C39.7658 35.6451 41.781 36.2314 43.6167 37.2626C44.1754 37.5861 44.3749 38.0107 44.2751 38.6779C43.6965 42.2364 40.8632 44.7031 37.3316 44.7031ZM72.1292 54.4081C72.1292 54.4485 72.1092 54.489 72.1092 54.5496L72.0893 54.8125H66.5624V49.8993C66.5624 49.7578 66.5624 49.6162 66.5624 49.4747C66.5624 49.1512 66.5624 48.8075 66.5424 48.484C66.5025 47.7157 66.0037 47.2304 65.3253 47.2507C64.6269 47.2709 64.188 47.7561 64.168 48.5244C64.1481 49.9195 64.168 51.2742 64.168 52.7097C64.168 53.2961 64.168 53.9026 64.168 54.5092V54.7923L63.8887 54.8125C63.8089 54.8125 63.7091 54.8327 63.6293 54.8327C63.1305 54.8731 62.6516 54.8529 62.1728 54.8529C61.5742 54.8529 60.9756 54.8529 60.377 54.8529C58.2221 54.8529 55.9874 54.8529 53.7926 54.8731H53.7726C53.214 54.8731 52.8349 54.7316 52.6353 54.0037C51.9769 51.6786 50.4605 49.9802 48.0861 48.949C47.2082 48.5649 46.2904 48.2616 45.3925 47.9583C44.8737 47.7763 44.335 47.5944 43.8162 47.4124C43.058 47.1293 42.9383 46.8665 42.9184 46.6845L42.8984 46.543C42.8385 46.078 42.7388 45.4512 43.3573 44.9457C45.2528 43.3484 46.3702 41.3063 46.6296 38.8599C46.7293 37.9702 46.7094 37.0604 46.7094 36.1708C46.7094 35.9888 46.7094 35.8271 46.7094 35.6451C46.7094 35.2205 46.7892 34.7555 47.4875 34.6139C47.9265 34.5331 48.3655 34.3915 48.8244 34.25C49.0239 34.1893 49.2234 34.1287 49.4429 34.068L49.7023 34.0074L49.8021 34.25C50.9194 36.9189 52.775 38.2735 55.3489 38.2735C57.9827 38.2735 59.7984 36.9189 60.9556 34.1287L61.0554 33.8658L61.3148 33.9669C62.0131 34.2096 62.7115 34.4522 63.3899 34.6746C64.9262 35.1801 66.5025 35.726 68.0189 36.3527C70.7325 37.485 72.1691 39.7091 72.1491 42.7419C72.1491 44.9457 72.1491 47.1496 72.1491 49.3332C72.1491 50.9305 72.1491 52.5075 72.1491 54.1048C72.1691 54.2261 72.1491 54.307 72.1292 54.4081Z" fill="#EB5757"/>
<path d="M37.4114 60.9588C38.0898 60.9588 38.5886 60.4736 38.6086 59.8064C38.6285 59.4829 38.5088 59.1796 38.2893 58.9369C38.0698 58.6943 37.7706 58.573 37.4314 58.5528C37.4314 58.5528 37.4314 58.5528 37.4114 58.5528C37.0922 58.5528 36.7929 58.6741 36.5734 58.9167C36.3539 59.1391 36.2142 59.4626 36.2342 59.7659C36.2342 60.4331 36.753 60.9588 37.4114 60.9588Z" fill="#EB5757"/>
<path d="M17.4986 22.2399C17.2193 22.0377 16.9399 21.9568 16.6806 21.9568C16.3613 21.9568 16.062 22.0984 15.8226 22.3814C15.3836 22.9071 15.4634 23.6148 16.0022 24.1202C16.8601 24.929 17.9176 25.3334 19.2145 25.3738C20.5115 25.3334 21.569 24.929 22.4269 24.1404C22.9856 23.635 23.0854 22.9273 22.6664 22.3814C22.2274 21.8355 21.569 21.7749 20.9504 22.2399C19.6336 23.2104 18.8554 23.2104 17.4986 22.2399Z" fill="#EB5757"/>
</svg>
