<svg width="66" height="78" viewBox="0 0 66 78" fill="none" xmlns="http://www.w3.org/2000/svg">
<path d="M58.4195 64.6518C59.0378 64.7786 59.4976 64.5408 59.9732 63.8591C63.3501 59.0396 65.3159 53.7444 65.8391 48.1321C66.6635 39.2699 64.3171 31.2161 58.8634 24.2088C58.4988 23.7331 58.372 23.3844 58.7049 22.7819C60.9086 18.9611 61.3366 14.3635 59.8622 10.1781C58.3878 6.00859 55.1854 2.69515 51.0792 1.09391C50.1914 0.745129 49.2402 0.539029 48.3207 0.317076C47.8926 0.221953 47.4487 0.12683 47.0206 0H44.0084C43.9767 0.0158538 43.945 0.0317076 43.8974 0.0317076C43.8023 0.0634152 43.6913 0.110977 43.5804 0.12683C37.223 1.14147 32.9583 4.75614 30.9132 10.8757C30.6912 11.5257 30.39 11.7794 29.7241 11.8903C29.3912 11.9379 29.0424 12.0013 28.7095 12.0489C27.2668 12.2708 25.7766 12.4928 24.3656 12.8891C14.5362 15.6953 6.60931 22.6551 2.61415 31.993C-1.25418 41.0296 -0.810274 51.2395 3.81904 59.9908C11.8252 75.1153 29.6924 81.7422 45.3877 75.4007C46.767 74.8458 48.0828 74.1482 49.5414 73.3714C49.8743 73.197 50.0963 72.9275 50.1914 72.5945C50.2865 72.2458 50.239 71.8811 50.0487 71.5482C49.6841 70.8982 48.9231 70.6762 48.2097 71.0092C48.0828 71.0726 47.9719 71.136 47.845 71.2153C47.7499 71.2787 47.6548 71.3262 47.5438 71.3738C42.5816 73.9104 37.5718 75.1787 32.6571 75.1153C27.7266 75.0519 22.7485 73.6726 17.8655 71.0092C16.9143 70.486 16.7716 70.1372 17.1204 69.1067C17.2789 68.6311 17.5801 68.2189 17.8179 67.9652C18.1826 67.553 18.5789 67.1726 18.9594 66.7921C19.1972 66.5543 19.4509 66.3006 19.6887 66.0469C20.6082 65.0957 21.0838 64.0018 21.0838 62.8128C21.1155 58.77 21.1314 55.1078 21.0838 51.3663C21.0521 48.8614 19.0228 46.8004 16.4704 46.6577C15.7252 46.6102 14.9326 46.6102 13.9655 46.6419C13.0459 46.6736 12.285 46.3565 11.6033 45.6589C9.19347 43.2175 6.67272 40.6967 4.12026 38.1918C3.70806 37.7796 3.61294 37.3991 3.75562 36.8442C5.18246 31.6759 7.79834 27.1417 11.524 23.4002C12.1106 22.8136 12.7289 22.2587 13.3313 21.7197C13.6008 21.4819 13.8703 21.2441 14.124 21.0063L14.2508 20.8795L14.3618 21.0221C14.5679 21.3075 14.7582 21.5929 14.9326 21.8624C15.313 22.4331 15.6618 22.9722 16.1057 23.4161C18.1667 25.5563 20.3228 27.6807 22.3997 29.7417L23.0497 30.3917C24.2387 31.5808 25.7448 32.2308 27.5363 32.31C30.1205 32.4369 31.5632 33.9271 31.579 36.5113C31.579 37.6845 31.579 38.8735 31.579 40.0308C31.579 41.4577 31.579 42.9162 31.5949 44.3748C31.6108 45.7065 31.1827 46.7846 30.279 47.7992C27.8375 50.4626 27.9802 54.5371 30.5803 57.0578C31.8644 58.3103 33.212 59.5786 34.6864 60.9103C37.4132 63.3993 41.2974 63.3518 43.9133 60.7835C46.5767 58.1834 49.2402 55.4883 51.8085 52.8883L53.1244 51.5566C54.3451 50.32 54.9951 48.8773 55.0427 47.2443C55.0902 45.865 55.0902 44.3906 55.0744 42.5992C55.0585 41.3467 55.4866 40.3004 56.3902 39.4125C57.3415 38.4772 58.3086 37.5101 59.2439 36.5747C59.7671 36.0515 60.2903 35.5284 60.8135 35.0052C60.9086 34.9101 61.0196 34.8308 61.1305 34.7515C61.1781 34.7198 61.2256 34.6881 61.2732 34.6406L61.3842 34.5454L61.4793 34.6564C61.511 34.6881 61.5269 34.704 61.5427 34.7198C61.5903 34.7674 61.622 34.7991 61.6537 34.8625C61.733 35.0528 61.7964 35.2589 61.8598 35.4491C64.111 42.7101 63.7781 49.8443 60.861 56.6298C60.211 58.1517 59.339 59.5944 58.4829 60.9896C58.2134 61.4335 57.9281 61.8932 57.6585 62.353C57.3415 62.9079 57.2781 63.4786 57.4683 63.9225C57.6427 64.3189 57.9756 64.5725 58.4195 64.6518ZM3.89831 41.8223C4.42148 42.3455 4.94466 42.8687 5.46783 43.3919C6.87882 44.8028 8.33737 46.2614 9.76421 47.7041C10.8898 48.8614 12.2216 49.4004 13.8069 49.3846H14.0923C14.7582 49.3846 15.4399 49.3687 16.1057 49.4004C17.4692 49.448 18.357 50.3358 18.3728 51.6834C18.3887 55.6944 18.4045 59.0396 18.357 62.5115C18.3411 63.1615 17.9448 63.8274 17.707 64.1603C17.485 64.4774 17.1838 64.7628 16.8984 65.0164C16.6765 65.2225 16.4545 65.4286 16.2801 65.6506C15.8045 66.2213 15.3448 66.8238 14.8691 67.4421C14.663 67.7116 14.4569 67.9811 14.2508 68.2506L14.1716 68.3616L14.0447 68.2982C10.7947 66.4116 7.44956 61.8615 5.08734 56.1225C2.72512 50.3675 1.96414 44.8187 3.02635 41.315L3.10562 41.0772L3.29586 41.2516C3.35928 41.315 3.43854 41.3784 3.50196 41.4418C3.62879 41.5687 3.77147 41.6955 3.89831 41.8223ZM51.3804 14.1733C52.4268 13.1428 52.9975 11.6367 53.0292 9.84521C53.0451 8.86227 53.0451 7.87934 53.0292 6.92811C53.0292 6.51591 53.0292 6.10371 53.0292 5.72322V5.40615L53.2829 5.56468C55.3597 6.94396 56.9451 9.3696 57.6427 12.2074C58.372 15.1879 58.0232 18.216 56.6756 20.7368L56.6122 20.8636L55.3122 20.3721C53.9012 19.849 52.4585 19.3099 51.0317 18.755C50.778 18.6599 50.6195 18.2953 50.5719 18.1526C50.5243 17.9941 50.5085 17.8355 50.5085 17.6928C50.5085 17.6136 50.4926 17.5184 50.4926 17.455C50.2865 16.2026 50.3658 15.1721 51.3804 14.1733ZM43.0096 24.7002C44.7694 25.5088 46.6719 25.4453 48.5426 24.51C49.4621 24.0502 50.4134 23.4319 51.3646 22.6551C51.8719 22.2587 52.3158 22.0685 53.0134 22.4173C53.4097 22.6075 53.8378 22.7661 54.2975 22.9246C54.5195 23.0039 54.7414 23.0831 54.9792 23.1624L55.1695 23.2417L54.1073 24.7161C53.3939 25.699 52.6963 26.6661 51.9987 27.6332C51.5548 28.2515 51.1109 28.8539 50.667 29.4722C49.5573 31.0259 48.3999 32.6113 47.2585 34.1808C46.7987 34.8149 46.1487 35.1637 45.4987 35.1637C44.8487 35.1637 44.2462 34.8308 43.8023 34.2284C41.884 31.6125 39.9499 28.9332 38.095 26.3332C37.4608 25.4612 36.8425 24.5892 36.2084 23.7173C36.1608 23.6539 36.1291 23.5905 36.0974 23.5112C36.0815 23.4636 36.0498 23.4319 36.034 23.3685L35.9547 23.21L36.1132 23.1465C36.3352 23.0673 36.5571 22.9722 36.7791 22.8929C37.3815 22.6551 37.9681 22.4331 38.5547 22.2429C38.8084 22.1636 39.1096 22.3222 39.395 22.4965C39.8072 22.7502 40.2035 23.0197 40.5999 23.2734C41.3767 23.7807 42.1694 24.3039 43.0096 24.7002ZM41.8682 20.8795L42.0108 20.7526C43.1999 19.7855 43.2633 18.3587 43.3109 17.1063V16.9477H47.6231L47.6389 17.0745C47.6706 17.3123 47.7024 17.566 47.7341 17.8197C47.845 18.866 47.956 19.9599 49.0182 20.6892L49.1926 20.8002L49.0341 20.927C47.8926 21.8941 46.6877 22.3856 45.467 22.3856C44.2779 22.3856 43.073 21.91 41.9791 20.9587L41.8682 20.8795ZM40.7742 6.95982C41.0121 4.53419 43.1523 2.69515 45.6572 2.75856C48.1146 2.82198 50.1438 4.78785 50.2865 7.24519C50.3024 7.54641 50.3024 7.83178 50.2865 8.14885C50.2865 8.29154 50.2865 8.43422 50.2865 8.59276C50.4768 10.7806 49.8109 12.3818 48.2255 13.4916C47.417 14.0623 46.4816 14.3477 45.5304 14.3477C44.8487 14.3477 44.167 14.205 43.5011 13.9038C41.9633 13.1904 40.9328 11.7794 40.7742 10.1147C40.6791 9.06837 40.6791 8.02202 40.7742 6.95982ZM33.4339 12.0964C34.1632 9.27447 35.812 6.84884 37.9364 5.45371L38.1742 5.29517V5.59639C38.1742 6.16713 38.1584 6.75372 38.1584 7.3086C38.1267 8.60861 38.1108 9.95619 38.2218 11.2562C38.3169 12.4611 38.9511 13.6184 40.1242 14.7757C40.5364 15.1879 40.695 15.5843 40.6633 16.155V16.2026C40.5206 18.5489 40.473 18.6124 38.2376 19.4526C37.0803 19.8965 35.9071 20.3246 34.7498 20.7526C34.7022 20.7685 34.6547 20.7685 34.5913 20.7843C34.5596 20.7843 34.5437 20.7843 34.4961 20.7843H34.401L34.3535 20.6892C32.99 18.1367 32.6571 15.077 33.4339 12.0964ZM59.783 32.1515L59.5451 32.4052C57.9598 34.0223 56.3268 35.6869 54.6622 37.2881C53.0134 38.8735 52.2524 40.6967 52.3317 42.8845C52.3475 43.5821 52.3475 44.3114 52.3475 44.9931C52.3475 45.5004 52.3317 46.0236 52.3475 46.5468C52.3634 47.8626 51.9195 48.9407 50.9841 49.8761C49.2243 51.62 47.4328 53.4115 45.7206 55.1395C44.5633 56.2968 43.406 57.4542 42.2486 58.6115C41.2974 59.5469 40.2828 60.0225 39.2523 60.0225C38.2535 60.0225 37.2388 59.5786 36.3035 58.6908C34.8925 57.3749 33.751 56.2968 32.6888 55.2981C30.8656 53.57 30.7705 51.2712 32.451 49.4639C33.7035 48.1004 34.3218 46.5468 34.3218 44.7394C34.3218 44.0577 34.3218 43.376 34.3376 42.7101C34.3535 40.6333 34.3535 38.4772 34.3218 36.3528C34.2425 32.4527 31.6583 29.8051 27.7266 29.6149C26.5851 29.5673 25.6656 29.1551 24.8887 28.3783C23.4619 26.9356 22.0351 25.5088 20.5924 24.0819C19.7838 23.2734 18.9594 22.449 18.1509 21.6404C18.024 21.5136 17.8655 21.3551 17.7228 21.1807C17.1362 20.4197 16.9301 19.9441 17.0094 19.516C17.0887 19.088 17.4692 18.7392 18.2777 18.2794C21.5753 16.4562 25.2217 15.2514 29.1217 14.7123C29.3278 14.6806 29.5339 14.6806 29.74 14.6648C29.8351 14.6648 29.9144 14.6489 29.9937 14.6489L30.1363 14.6331L30.1522 14.7757C30.1998 15.1721 30.2473 15.5684 30.2949 15.9489C30.39 16.805 30.4851 17.6136 30.6437 18.4221C31.0717 20.5465 31.9595 22.5282 33.3864 24.4941C34.4486 25.9685 35.5266 27.4588 36.5888 28.9332C38.1901 31.1369 39.7755 33.3564 41.3767 35.5601C42.4706 37.0662 43.9292 37.8906 45.4987 37.8906C47.0841 37.8906 48.5585 37.0503 49.6682 35.5284C50.9999 33.6893 52.3317 31.8503 53.6475 30.0112C54.4561 28.9015 55.2488 27.7917 56.0573 26.6819C56.1524 26.5551 56.2476 26.4283 56.3902 26.2539C56.4695 26.1588 56.5646 26.0319 56.6598 25.8893L56.8024 25.699L56.9293 25.9051C57.1671 26.3015 57.389 26.6819 57.6268 27.0624C58.4988 28.4893 59.3073 29.8527 60.1 31.232C60.2427 31.4698 59.9732 31.9613 59.783 32.1515Z" fill="#EB5757"/>
<path d="M54.2975 66.8713C53.5365 66.8713 52.95 67.4579 52.95 68.203C52.95 68.5518 53.0926 68.9165 53.3622 69.1701C53.6317 69.4396 53.9963 69.5823 54.3451 69.5665C55.0744 69.5506 55.6451 68.9482 55.6451 68.1872C55.6292 67.4579 55.0427 66.8713 54.2975 66.8713Z" fill="#EB5757"/>
</svg>
