<svg width="54" height="79" viewBox="0 0 54 79" fill="none" xmlns="http://www.w3.org/2000/svg">
<path d="M2.59766 1.12801C2.31461 0.844958 1.92199 0.682129 1.52177 0.682129C1.12154 0.682129 0.728927 0.844958 0.445878 1.12801C0.162829 1.41106 0 1.80367 0 2.2039C0 2.60412 0.162829 2.99674 0.445878 3.27979C0.728927 3.56284 1.12154 3.72567 1.52177 3.72567C1.92199 3.72567 2.31461 3.56284 2.59766 3.27979C2.88071 2.99674 3.04354 2.60412 3.04354 2.2039C3.04354 1.80367 2.88071 1.41106 2.59766 1.12801Z" fill="#EB5757"/>
<path d="M52.0778 38.7901C52.0416 38.6381 51.9829 38.4952 51.9048 38.3648C51.2705 36.8456 50.4975 35.3814 49.5894 33.996L48.752 32.7183C48.7088 32.6524 48.6601 32.5924 48.6089 32.5355C48.8599 31.9872 49.0009 31.3785 49.0009 30.7373C49.0009 27.171 46.0997 24.2697 42.5334 24.2697H38.9524C39.8162 23.0707 40.3269 21.6013 40.3269 20.0141C40.3269 17.8413 39.3998 15.7623 37.7832 14.3102L23.0825 1.10553C22.4572 0.543993 21.4951 0.595277 20.9334 1.22072C20.3719 1.84587 20.4234 2.80808 21.0486 3.36977L35.7492 16.5743C36.7241 17.4499 37.2832 18.7037 37.2832 20.0141C37.2832 22.3605 35.3741 24.2696 33.0277 24.2696H32.8701C32.7847 24.2696 32.6996 24.2767 32.6156 24.291L17.4472 26.8643C17.4346 26.8665 17.4084 26.8709 17.3781 26.8455C17.348 26.8201 17.348 26.7934 17.348 26.7807V10.4215C17.348 9.58102 16.6667 8.89972 15.8262 8.89972C14.9858 8.89972 14.3045 9.58102 14.3045 10.4215V26.7805C14.3045 27.7036 14.709 28.5748 15.4141 29.1704C16.1193 29.7662 17.0461 30.019 17.9561 29.8648L32.9983 27.3131H42.5334C44.4215 27.3131 45.9574 28.849 45.9574 30.7371C45.9574 31.4504 45.3772 32.0306 44.6639 32.0306H33.1746C32.9761 32.0306 32.7795 32.0694 32.596 32.1449L16.2589 38.8614C13.8686 39.8441 11.1403 39.8125 8.7733 38.7746C5.29256 37.2484 3.04354 33.8065 3.04354 30.0059V6.92142C3.04354 6.08095 2.36224 5.39965 1.52177 5.39965C0.681296 5.39965 0 6.08095 0 6.92142V30.0059C0 34.6079 2.50331 38.8092 6.46752 41.0214V46.85C6.46752 48.0615 6.27364 49.2587 5.89138 50.4082C3.11156 58.7673 2.8798 67.6742 5.22073 76.1665L5.58261 77.4794C5.76872 78.1543 6.38108 78.5972 7.04883 78.5972C7.18275 78.5972 7.31879 78.5794 7.45423 78.5421C8.26442 78.3187 8.74013 77.4808 8.51688 76.6706L8.15501 75.3576C5.97477 67.4489 6.19071 59.1537 8.77954 51.3688C9.26498 49.9089 9.51121 48.3887 9.51121 46.8502V42.2309C10.529 42.4877 11.5743 42.6186 12.62 42.6186C14.2535 42.6186 15.8874 42.3048 17.4163 41.6763L33.4751 35.0741H44.6638C45.2865 35.0741 45.8784 34.9411 46.4142 34.7039L47.0438 35.6644C47.8395 36.8785 48.512 38.141 49.0649 39.436C48.9142 41.4803 47.2039 43.098 45.1218 43.098C41.7847 43.098 38.9876 45.4462 38.2914 48.5765C38.1958 48.5762 38.1002 48.5785 38.0043 48.5861C37.1103 48.6571 35.7795 49.1077 34.5172 50.8509C34.3194 51.1242 33.9325 51.249 33.4648 51.2779C34.5758 50.0354 35.2528 48.3971 35.2528 46.6029C35.2528 42.7308 32.1025 39.5804 28.2303 39.5804C24.3582 39.5804 21.208 42.7308 21.208 46.6029C21.208 47.8407 21.531 49.004 22.0956 50.0149C22.078 50.0716 22.0624 50.1296 22.0513 50.1896C22.0344 50.2804 21.6432 52.4436 22.1773 55.0228C22.9067 58.5454 24.9846 61.1856 28.186 62.6576C30.5029 63.7228 32.5359 64.164 34.2812 64.1638C37.7779 64.1637 40.1176 62.3917 41.2579 60.3165C41.3591 60.4481 41.4484 60.5934 41.4833 60.6911C41.7722 61.7282 42.8431 62.3196 44.1538 62.1633C45.801 61.9665 47.6058 60.6319 47.6763 58.1667C47.7336 56.1567 46.5001 53.8929 44.6065 52.5335C43.6973 51.8809 42.7342 51.5123 41.7808 51.4342C41.6636 50.8684 41.4419 50.3777 41.169 50.0035C41.2188 47.8655 42.9722 46.1414 45.1218 46.1414C47.2424 46.1414 49.1445 45.1919 50.429 43.6974C52.0841 51.2499 49.9963 59.3209 44.4035 65.2243C42.4615 67.2742 41.392 69.9581 41.392 72.7817V77.075C41.392 77.9154 42.0733 78.5967 42.9137 78.5967C43.7542 78.5967 44.4355 77.9154 44.4355 77.075V72.7819C44.4355 70.7403 45.2089 68.7997 46.6128 67.3175C50.7706 62.9289 53.3566 57.1956 53.8945 51.1741C54.2713 46.9561 53.6326 42.6997 52.0778 38.7901ZM28.2305 42.6241C30.4244 42.6241 32.2095 44.409 32.2095 46.6031C32.2095 48.797 30.4246 50.5819 28.2305 50.5819C26.0365 50.5819 24.2517 48.797 24.2517 46.6031C24.2517 44.409 26.0365 42.6241 28.2305 42.6241ZM41.3527 54.4665C41.9506 54.4523 42.5124 54.7769 42.8317 55.0061C43.8703 55.7518 44.6621 57.1019 44.6341 58.0799C44.6236 58.4484 44.5163 58.718 44.3058 58.9044C44.2275 58.974 44.1436 59.0248 44.0642 59.0613C43.5797 58.196 42.6645 57.1587 41.3938 57.024C40.8645 56.9681 39.5365 57.025 38.6374 58.7631C37.5566 60.8524 34.5776 62.2462 29.4575 59.8922C25.8509 58.2339 25.0518 54.958 24.9451 52.8069C25.9261 53.3284 27.0441 53.6253 28.2305 53.6253C28.6284 53.6253 29.0183 53.5903 29.3984 53.5263C30.1388 53.8315 34.8299 55.6084 36.9825 52.636C37.423 52.0276 37.8952 51.6479 38.2457 51.62C38.4487 51.6047 38.6162 51.7147 38.7276 51.8195C38.7881 51.9235 38.9253 52.328 38.7199 52.8939C38.2497 54.1894 36.3768 55.3712 33.5818 56.1366C32.7711 56.3587 32.2941 57.1956 32.5159 58.0063C32.7011 58.6824 33.3141 59.1265 33.9828 59.1265C34.1159 59.1265 34.2511 59.1088 34.3856 59.0721C38.6986 57.8911 40.571 56.0558 41.3527 54.4665Z" fill="#EB5757"/>
</svg>
