<svg width="79" height="79" viewBox="0 0 79 79" fill="none" xmlns="http://www.w3.org/2000/svg">
<path d="M48.7168 10.0764H51.3501V12.7097H48.7168V10.0764Z" fill="#EB5757"/>
<path d="M3.69845 34.5481C2.11389 32.7372 0.989944 30.5705 0.422127 28.2322C-0.145691 25.8938 -0.140594 23.453 0.436981 21.1171C1.01456 18.7811 2.14754 16.6192 3.73965 14.8149C5.33175 13.0106 7.33591 11.6174 9.58179 10.7536L17.9607 7.53091C18.1348 7.46398 18.321 7.43477 18.5072 7.44523C18.6934 7.45568 18.8752 7.50556 19.0406 7.59156C19.2061 7.67755 19.3514 7.79771 19.4669 7.94407C19.5824 8.09044 19.6655 8.25967 19.7107 8.44056L20.0175 9.66786C20.3415 10.9734 20.2004 12.351 19.6184 13.5637C21.4742 14.2758 23.1388 15.4099 24.4808 16.8762C25.8228 18.3425 26.8053 20.1008 27.3507 22.0123L27.4401 22.325L32.1888 24.6994C32.3557 24.7829 32.5031 24.901 32.6209 25.0457C32.7388 25.1905 32.8245 25.3587 32.8724 25.5391C32.9203 25.7196 32.9293 25.9081 32.8988 26.0923C32.8683 26.2765 32.7989 26.4521 32.6954 26.6074L30.3853 30.0727L31.4317 34.2569C31.5429 34.7066 31.5995 35.1681 31.6001 35.6313C31.6013 36.8997 31.178 38.132 30.3975 39.1319C29.617 40.1317 28.5243 40.8415 27.2936 41.1482L26.3334 41.3885V45.102L27.9257 44.6561C27.9282 44.6561 27.9307 44.6551 27.933 44.6544L42.5333 40.5659L44.2858 37.0603C43.6364 36.045 43.4113 34.8154 43.659 33.636C43.9067 32.4565 44.6074 31.4213 45.6104 30.7531L46.8414 29.9325L48.3526 28.9251L50.0334 25.5656V21.6961C48.1591 21.2511 46.4897 20.1869 45.2951 18.6757C44.1005 17.1645 43.4504 15.2946 43.45 13.3682V9.41819C43.45 7.14838 44.3517 4.97154 45.9567 3.36654C47.5617 1.76154 49.7386 0.859863 52.0084 0.859863C54.2782 0.859863 56.455 1.76154 58.06 3.36654C59.665 4.97154 60.5667 7.14838 60.5667 9.41819V13.3682C60.5684 14.6143 60.2965 15.8456 59.7703 16.9752L69.346 22.5603C70.981 23.5142 72.2668 24.9675 73.0143 26.7066C73.7619 28.4456 73.9317 30.3786 73.499 32.2213C73.6548 32.725 73.7338 33.2493 73.7333 33.7765V38.3848L78.4733 41.9398C78.6369 42.0625 78.7696 42.2215 78.861 42.4043C78.9524 42.5871 79 42.7887 79 42.9931V48.5977C79 49.4554 78.6948 50.2851 78.139 50.9384C77.5832 51.5917 76.8131 52.0259 75.9665 52.1632C75.1198 52.3006 74.2519 52.1323 73.5181 51.6883C72.7842 51.2443 72.2323 50.5536 71.9611 49.7399L71.34 47.8768L68.2952 46.3543C66.8969 45.6612 65.6989 44.6224 64.8149 43.3363C63.9308 42.0502 63.3901 40.5596 63.244 39.0058C61.8634 38.8812 60.5315 38.4336 59.3559 37.6992L57.3654 36.4557L52.3407 50.9007C51.9403 52.0409 51.2851 53.0748 50.425 53.9237C49.5648 54.7726 48.5224 55.4141 47.377 55.7994L33.3529 60.475C33.3507 60.475 33.3486 60.476 33.3464 60.4767L30.4085 61.4559L35.4929 78.1596L32.9738 78.9266L27.9094 62.289L19.8961 64.9602C18.6764 65.3667 17.3776 65.4775 16.1067 65.2836C14.8357 65.0896 13.6291 64.5965 12.5862 63.8447C11.5433 63.093 10.6939 62.1042 10.1081 60.9598C9.52225 59.8154 9.21675 58.5481 9.21675 57.2625V56.048C9.2198 54.7935 9.51274 53.5567 10.0727 52.4341C10.6327 51.3115 11.4445 50.3335 12.4449 49.5765H11.2525C8.39277 54.2145 7.48348 59.7953 8.723 65.1013L11.8155 78.2414L9.2523 78.8448L6.15978 65.7043C5.45299 62.6782 5.35934 59.5412 5.88437 56.4783C6.4094 53.4154 7.54247 50.4887 9.21675 47.8707V40.8546L3.69845 34.5481ZM17.5096 10.5258L10.527 13.2115C8.6769 13.9232 7.02593 15.0709 5.71442 16.5573C4.40289 18.0436 3.46957 19.8246 2.99377 21.749C2.51795 23.6733 2.51372 25.684 2.98142 27.6103C3.44913 29.5366 4.37494 31.3215 5.68019 32.8134L9.86669 37.5978L11.6429 30.4931C10.9005 29.9893 10.3229 29.278 9.98215 28.448C9.64143 27.618 9.55267 26.7061 9.72696 25.826C9.86432 25.1391 10.1582 24.4932 10.5858 23.9385C11.0134 23.3837 11.5632 22.935 12.1924 22.6273C12.8216 22.3195 13.5133 22.1611 14.2138 22.1641C14.9142 22.1672 15.6045 22.3318 16.231 22.6451L16.4252 22.7423L16.764 21.8952C17.1464 20.9288 17.1868 19.8606 16.8785 18.8681C16.5701 17.8755 15.9316 17.0183 15.0688 16.4386C14.8638 16.3019 14.7012 16.1104 14.5997 15.8858C14.4981 15.6613 14.4616 15.4127 14.4943 15.1684C14.5271 14.9241 14.6277 14.694 14.7848 14.504C14.9418 14.3141 15.1491 14.1721 15.3829 14.0942C16.1043 13.8503 16.715 13.3568 17.1049 12.7026C17.4948 12.0484 17.6383 11.2765 17.5096 10.5258ZM46.5878 35.766C46.8901 36.1687 47.335 36.4404 47.8313 36.5254C48.3275 36.6104 48.8375 36.5022 49.2565 36.223L49.7682 35.882L47.2977 32.7938L47.0712 32.9449C46.8483 33.0935 46.6581 33.286 46.5121 33.5106C46.3661 33.7353 46.2675 33.9873 46.2223 34.2514C46.177 34.5154 46.1861 34.7859 46.249 35.0463C46.3118 35.3068 46.4271 35.5516 46.5878 35.766ZM55.0018 32.392C55.9043 31.7918 56.6443 30.9776 57.1558 30.022C57.6673 29.0664 57.9344 27.9991 57.9334 26.9152V20.6098C57.9299 19.9304 57.6652 19.2783 57.194 18.7888C56.7227 18.2993 56.0812 18.0099 55.4024 17.9806C54.6938 18.0061 54.0203 18.2959 53.5147 18.793C53.009 19.2901 52.7078 19.9585 52.6703 20.6666C52.6672 20.7134 52.6665 20.759 52.6665 20.8057V28.5098C52.6665 28.7266 52.613 28.94 52.5108 29.1311C52.4085 29.3222 52.2606 29.4851 52.0803 29.6053L49.4963 31.3275L51.9667 34.4157L55.0018 32.392ZM60.5667 20.6098V21.8251L61.0557 22.0206C61.3702 22.1465 61.6242 22.3887 61.7647 22.6969C61.9053 23.0052 61.9216 23.3557 61.8103 23.6757L60.5552 27.2842C60.5309 27.9308 60.4385 28.573 60.2797 29.2003L64.5424 22.807L60.5642 20.4864C60.5646 20.5275 60.5667 20.5685 60.5667 20.6098ZM57.9334 9.41819C57.9334 7.84678 57.3091 6.33974 56.198 5.22858C55.0868 4.11743 53.5798 3.49319 52.0084 3.49319C50.437 3.49319 48.9299 4.11743 47.8188 5.22858C46.7076 6.33974 46.0834 7.84678 46.0834 9.41819V13.3682C46.0765 14.6433 46.4839 15.8861 47.2441 16.9098C48.0043 17.9335 49.0764 18.6826 50.299 19.0447C50.5682 18.215 51.033 17.4624 51.6543 16.8503C52.1459 16.3607 52.731 15.9751 53.3747 15.7164C54.0184 15.4576 54.7076 15.3311 55.4012 15.3442C55.4054 15.3442 55.4093 15.3442 55.4134 15.3442C55.4407 15.3442 55.4677 15.3427 55.4957 15.3427C56.1638 15.3437 56.8261 15.4672 57.4496 15.7071C57.7687 14.9686 57.9333 14.1726 57.9334 13.3682V9.41819ZM65.8333 38.1106C65.8292 39.3341 66.168 40.5343 66.8112 41.575C67.4544 42.6158 68.3763 43.4556 69.4724 43.9991L73.0056 45.7656C73.1602 45.8428 73.2981 45.9498 73.4114 46.0805C73.5247 46.2111 73.6111 46.3627 73.6657 46.5267L74.4593 48.9073C74.5328 49.1278 74.6824 49.315 74.8812 49.4353C75.0801 49.5556 75.3153 49.6012 75.5447 49.564C75.7741 49.5267 75.9828 49.4091 76.1334 49.232C76.284 49.055 76.3667 48.8301 76.3667 48.5977V43.6515L71.6267 40.0965C71.4632 39.9738 71.3304 39.8148 71.239 39.632C71.1476 39.4492 71.1 39.2476 71.1 39.0432V33.7765C71.1 33.0781 70.8226 32.4083 70.3287 31.9144C69.8349 31.4206 69.1651 31.1432 68.4667 31.1432C67.7683 31.1432 67.0985 31.4206 66.6046 31.9144C66.1108 32.4083 65.8333 33.0781 65.8333 33.7765V38.1106ZM63.2 36.3517V33.7765C63.1996 32.8607 63.438 31.9606 63.8919 31.1652C64.3457 30.3698 64.9992 29.7065 65.7878 29.2409C66.5764 28.7753 67.4728 28.5235 68.3885 28.5104C69.3042 28.4973 70.2075 28.7232 71.0092 29.166C70.8567 28.2698 70.5101 27.4177 69.9936 26.6695C69.4771 25.9213 68.8032 25.2951 68.0192 24.8349L66.8208 24.136L59.7039 34.8119L60.7507 35.4658C61.4953 35.9309 62.3301 36.2329 63.2 36.3517ZM49.8523 50.036L54.8557 35.6554L50.7175 38.4141C50.0808 38.8386 49.3482 39.0977 48.5862 39.1677C47.8241 39.2377 47.0566 39.1166 46.3531 38.8152L44.628 42.2654C44.5458 42.4297 44.4301 42.575 44.2884 42.692C44.1466 42.8089 43.982 42.8949 43.805 42.9444L29.9871 46.8138L33.7507 57.5667L46.5442 53.301C47.3076 53.0442 48.0024 52.6166 48.5756 52.0508C49.1489 51.485 49.5855 50.7959 49.8523 50.036ZM11.8501 57.2625C11.8501 58.1309 12.0565 58.9868 12.4522 59.7597C12.8479 60.5327 13.4216 61.2005 14.1261 61.7083C14.8305 62.216 15.6455 62.5491 16.504 62.6801C17.3624 62.8111 18.2396 62.7362 19.0634 62.4617L31.252 58.3988L27.4456 47.5246L15.8527 50.7707C14.7026 51.0959 13.6898 51.7869 12.9676 52.7392C12.2453 53.6915 11.853 54.8532 11.8501 56.0484V57.2625ZM19.7573 46.9431L23.7001 45.8391V41.3885C23.6994 40.8011 23.8954 40.2305 24.2568 39.7675C24.6182 39.3046 25.1242 38.976 25.6942 38.8341L26.6538 38.5938C27.3148 38.4292 27.9016 38.048 28.3207 37.5111C28.7399 36.9742 28.9673 36.3125 28.9667 35.6313C28.9663 35.3817 28.9359 35.1331 28.876 34.8907L28.4201 33.0678C26.6165 33.4106 24.7501 33.1479 23.1112 32.3206L24.2889 29.9654C25.3669 30.5075 26.588 30.6966 27.7794 30.5061L27.6894 30.1456C27.6449 29.9676 27.6381 29.7823 27.6694 29.6016C27.7007 29.4208 27.7695 29.2486 27.8713 29.0959L29.6772 26.3867L25.7445 24.4203C25.5813 24.3387 25.4368 24.224 25.3203 24.0836C25.2037 23.9432 25.1176 23.7801 25.0674 23.6046L24.8189 22.7356C24.3646 21.1424 23.5285 19.6842 22.3832 18.4872C21.2379 17.2902 19.8179 16.3907 18.2463 15.8666C18.9958 16.8529 19.4783 18.016 19.647 19.2433C19.8157 20.4706 19.665 21.7207 19.2094 22.8727L18.3393 25.0483C18.2716 25.2174 18.1696 25.3707 18.0397 25.4983C17.9099 25.626 17.7549 25.7253 17.5846 25.79C17.4144 25.8548 17.2326 25.8835 17.0507 25.8743C16.8688 25.8652 16.6908 25.8184 16.5279 25.7369L15.0537 24.9999C14.5978 24.772 14.07 24.7345 13.5865 24.8957C13.1029 25.0569 12.7032 25.4036 12.4753 25.8595C12.2473 26.3154 12.2098 26.8432 12.371 27.3267C12.5322 27.8103 12.8789 28.21 13.3348 28.4379L13.7556 28.6484C14.0235 28.7824 14.2378 29.0037 14.3629 29.2759C14.4881 29.548 14.5167 29.8547 14.4441 30.1453L11.8501 40.5219V46.9431H19.7573Z" fill="#EB5757"/>
<path d="M21.0669 23.2432H23.7002V25.8765H21.0669V23.2432Z" fill="#EB5757"/>
</svg>
